<svg xmlns="http://www.w3.org/2000/svg" viewBox="0 0 64 64" role="img" aria-label="Flag of India">
  <rect x="4" y="10" width="56" height="44" rx="4" fill="#fff" stroke="#d8ca97" stroke-width="2"/>
  <path d="M8 12h48a2 2 0 0 1 2 2v12H6V14a2 2 0 0 1 2-2Z" fill="#ff9933"/>
  <path d="M6 38h52v12a2 2 0 0 1-2 2H8a2 2 0 0 1-2-2V38Z" fill="#138808"/>
  <circle cx="32" cy="32" r="7.5" fill="none" stroke="#000080" stroke-width="1.7"/>
  <circle cx="32" cy="32" r="1.4" fill="#000080"/>
  <g stroke="#000080" stroke-width=".8" stroke-linecap="round">
    <path d="M32 24.5v15"/>
    <path d="M32 24.5v15" transform="rotate(15 32 32)"/>
    <path d="M32 24.5v15" transform="rotate(30 32 32)"/>
    <path d="M32 24.5v15" transform="rotate(45 32 32)"/>
    <path d="M32 24.5v15" transform="rotate(60 32 32)"/>
    <path d="M32 24.5v15" transform="rotate(75 32 32)"/>
    <path d="M32 24.5v15" transform="rotate(90 32 32)"/>
    <path d="M32 24.5v15" transform="rotate(105 32 32)"/>
    <path d="M32 24.5v15" transform="rotate(120 32 32)"/>
    <path d="M32 24.5v15" transform="rotate(135 32 32)"/>
    <path d="M32 24.5v15" transform="rotate(150 32 32)"/>
    <path d="M32 24.5v15" transform="rotate(165 32 32)"/>
  </g>
</svg>
